<?xml version="1.0" encoding="UTF-8"?>
<svg width="1779px" height="1730px" viewBox="0 0 1779 1730" version="1.1" xmlns="http://www.w3.org/2000/svg" xmlns:xlink="http://www.w3.org/1999/xlink">
    <title>Group</title>
    <defs>
        <path d="M90.779,48.764 C36.26,48.764 9.678,15.578 0,2.27373675e-13 C22.104,21.14 50.329,34.729 80.329,34.729 C90.799,34.729 101.49,33.073 112.207,29.505 L112.009,47.19 C104.499,48.271 97.436,48.764 90.779,48.764 L90.779,48.764 Z" id="path-1"></path>
    </defs>
    <g id="Page-1" stroke="none" stroke-width="1" fill="none" fill-rule="evenodd">
        <g id="vecteezy_bird-watcher-looking-through-binoculars_5661867" transform="translate(-108.000000, -116.000000)">
            <g id="Group" transform="translate(108.190553, 116.551920)">
                <path d="M1675.80945,938.77808 C1590.47945,775.22608 1755.80945,622.33808 1670.47945,373.44708 C1554.54945,35.31808 923.649447,-34.80192 542.369447,142.72408 C175.795447,313.40408 -16.7385529,635.27308 1.14244712,960.11808 C17.1424471,1250.77808 75.8094471,1477.44808 166.476447,1600.11808 C206.711447,1654.54808 256.967447,1694.08808 315.100447,1722.22808 L1431.39945,1722.22808 C1750.73945,1530.42808 1889.86945,1349.06808 1675.80945,938.77808" id="Fill-3" fill="#F0E7E2"></path>
                <path d="M1417.13945,1721.77808 L1415.85945,1241.55808 C1415.85945,1241.55808 1493.18945,1135.08808 1529.04945,1105.95808 C1564.90945,1076.81808 1585.07945,1049.91808 1585.07945,1049.91808 L1562.66945,1045.43808 L1501.02945,1095.86808 L1476.37945,1024.14808 L1458.44945,1019.65808 L1488.70945,1110.43808 L1418.09945,1195.60808 L1413.61945,1008.45808 L1377.75945,1008.45808 L1379.99945,1193.36808 L1299.30945,1073.45808 L1285.85945,1017.41808 L1265.68945,1035.34808 L1306.02945,1120.51808 L1244.76945,1076.43808 L1223.09945,1077.93808 L1306.02945,1141.43808 L1378.50945,1231.84808 L1369.13945,1721.77808 L1417.13945,1721.77808" id="Fill-4" fill="#DBCCC4"></path>
                <path d="M1673.61945,1044.31808 C1673.61945,1044.31808 1682.58945,1057.76808 1669.13945,1082.42808 C1655.68945,1107.07808 1628.79945,1095.86808 1628.79945,1095.86808 C1622.06945,1145.17808 1563.79945,1068.97808 1563.79945,1068.97808 C1527.92945,1073.45808 1551.46945,1043.19808 1529.04945,1038.71808 C1506.63945,1034.23808 1498.79945,1030.86808 1498.79945,1030.86808 C1498.79945,1030.86808 1480.85945,1033.11808 1444.99945,1037.59808 C1409.13945,1042.07808 1406.89945,1008.45808 1406.89945,1008.45808 C1406.89945,1008.45808 1386.72945,1046.55808 1359.82945,1062.24808 C1332.92945,1077.93808 1303.79945,1046.55808 1303.79945,1046.55808 C1303.79945,1046.55808 1283.61945,1093.62808 1249.99945,1093.62808 C1216.97945,1093.62808 1222.87945,1082.82808 1223.09945,1082.43808 C1222.47945,1082.98808 1200.30945,1102.53808 1173.79945,1098.10808 C1146.89945,1093.62808 1169.30945,1073.45808 1169.30945,1073.45808 C1169.30945,1073.45808 1106.55945,1080.17808 1090.86945,1030.86808 C1075.17945,981.55808 1144.65945,972.59808 1144.65945,972.59808 C1144.65945,972.59808 1124.48945,961.38808 1119.99945,941.21808 C1115.51945,921.04808 1149.13945,914.31808 1149.13945,914.31808 C1149.13945,914.31808 1117.75945,896.38808 1128.96945,847.07508 C1140.17945,797.76508 1218.61945,788.80408 1218.61945,788.80408 C1218.61945,788.80408 1202.92945,773.11508 1216.37945,750.69508 C1229.68945,728.51508 1264.96945,748.05408 1265.67945,748.44508 C1265.50945,747.89508 1259.12945,728.06508 1270.17945,712.59508 C1281.37945,696.90508 1321.72945,735.00408 1321.72945,735.00408 C1321.72945,735.00408 1317.23945,676.73508 1384.48945,672.24508 C1450.66945,667.83408 1423.48945,726.38408 1422.61945,728.23508 C1423.30945,727.17508 1434.63945,710.14508 1460.68945,703.62408 C1487.58945,696.90508 1483.10945,761.90508 1483.10945,761.90508 C1483.10945,761.90508 1507.75945,748.45508 1545.85945,764.14508 C1583.96945,779.83508 1581.72945,851.55408 1581.72945,851.55408 C1581.72945,851.55408 1595.16945,824.66408 1633.27945,833.62508 C1640.80945,835.39508 1646.50945,839.10508 1650.78945,843.90508 C1652.11945,875.65508 1659.23945,907.01808 1675.80945,938.78808 C1689.23945,964.52808 1701.27945,989.35808 1711.95945,1013.34808 C1703.82945,1035.93808 1673.61945,1044.31808 1673.61945,1044.31808" id="Fill-5" fill="#DBCCC4"></path>
                <path d="M400.788447,1722.22808 C441.677447,1718.48808 476.783447,1716.13808 483.277447,1718.29808 C500.260447,1723.95808 409.681447,1282.38808 296.458447,1237.09808 C183.235447,1191.80808 273.813447,1401.27808 273.813447,1401.27808 C273.813447,1401.27808 139.153447,1209.46808 150.476447,1339.66808 C161.798447,1469.87808 217.201447,1520.15808 217.201447,1520.15808 C217.201447,1520.15808 103.978447,1469.20808 120.962447,1520.15808 C134.767447,1561.57808 213.765447,1679.53808 242.844447,1722.22808 L400.788447,1722.22808" id="Fill-6" fill="#DBCCC4"></path>
                <path d="M1694.72945,1510.47808 C1657.36945,1473.11808 1549.43945,1618.39808 1549.43945,1618.39808 C1549.43945,1618.39808 1685.94945,1307.58808 1590.47945,1432.11808 C1507.35945,1540.53808 1401.86945,1686.32808 1375.97945,1722.22808 L1431.39945,1722.22808 C1544.69945,1654.17808 1635.31945,1587.44808 1695.52945,1511.33808 C1695.27945,1511.04808 1695.00945,1510.75808 1694.72945,1510.47808" id="Fill-7" fill="#DBCCC4"></path>
                <path d="M406.476447,428.95508 L173.606447,428.95508 C197.476447,398.45508 223.736447,369.07508 252.326447,341.01508 C255.266447,340.35508 258.396447,339.86508 261.736447,339.58408 C303.086447,336.08408 310.796447,385.14508 310.796447,385.14508 C310.796447,385.14508 319.206447,373.93508 340.236447,373.23508 C361.266447,372.52508 364.766447,406.17508 364.766447,406.17508 C364.766447,406.17508 373.186447,401.96408 385.796447,402.67508 C398.416447,403.37508 406.476447,428.95508 406.476447,428.95508" id="Fill-8" fill="#E0D0C5"></path>
                <path d="M1653.54945,332.95508 L1420.71945,332.95508 C1422.11945,309.47508 1459.96945,314.38408 1459.96945,314.38408 C1459.96945,314.38408 1459.96945,301.76508 1471.18945,293.35508 C1482.39945,284.94508 1509.73945,294.05408 1509.73945,294.05408 C1509.73945,294.05408 1513.24945,264.61508 1543.38945,252.69508 C1573.52945,240.78508 1581.23945,282.13408 1581.23945,282.13408 C1581.23945,282.13408 1585.60945,266.52508 1600.80945,255.09508 C1621.84945,278.95508 1639.60945,304.90508 1653.54945,332.95508" id="Fill-9" fill="#E0D0C5"></path>
                <path d="M932.449447,1508.94808 C932.319447,1508.94808 932.199447,1508.93808 932.069447,1508.92808 C929.739447,1508.72808 928.009447,1506.66808 928.209447,1504.32808 C928.249447,1503.88808 932.289447,1459.06808 949.699447,1394.95808 C965.749447,1335.81808 996.819447,1247.58808 1053.61945,1163.07808 C1054.92945,1161.13808 1057.56945,1160.61808 1059.50945,1161.92808 C1061.45945,1163.22808 1061.97945,1165.86808 1060.66945,1167.81808 C1004.50945,1251.36808 973.779447,1338.66808 957.889447,1397.18808 C940.679447,1460.56808 936.709447,1504.62808 936.669447,1505.06808 C936.479447,1507.27808 934.619447,1508.94808 932.449447,1508.94808" id="Fill-10" fill="#456965"></path>
                <path d="M1045.45945,1589.50808 C1044.80945,1589.50808 1044.14945,1589.35808 1043.52945,1589.04808 C1041.43945,1587.97808 1040.60945,1585.41808 1041.67945,1583.32808 C1042.00945,1582.68808 1074.94945,1518.52808 1126.85945,1441.70808 C1174.83945,1370.71808 1249.32945,1274.02808 1331.74945,1216.63808 C1333.67945,1215.29808 1336.31945,1215.76808 1337.65945,1217.68808 C1338.99945,1219.61808 1338.52945,1222.26808 1336.60945,1223.60808 C1255.28945,1280.23808 1181.51945,1376.00808 1133.95945,1446.37808 C1082.31945,1522.77808 1049.56945,1586.55808 1049.23945,1587.19808 C1048.48945,1588.66808 1046.99945,1589.50808 1045.45945,1589.50808" id="Fill-11" fill="#456965"></path>
                <path d="M315.812447,1660.35808 C314.599447,1660.35808 313.396447,1659.84808 312.556447,1658.84808 C264.487447,1601.52808 217.528447,1507.02808 186.599447,1437.84808 C153.144447,1363.00808 130.703447,1300.83808 130.481447,1300.21808 C129.687447,1298.00808 130.832447,1295.57808 133.039447,1294.78808 C135.243447,1293.98808 137.677447,1295.13808 138.471447,1297.34808 C139.358447,1299.80808 228.167447,1545.00808 319.062447,1653.38808 C320.569447,1655.18808 320.334447,1657.85808 318.538447,1659.36808 C317.742447,1660.03808 316.774447,1660.35808 315.812447,1660.35808" id="Fill-12" fill="#456965"></path>
                <path d="M470.476447,1672.11808 C454.476447,1640.11808 321.142447,1400.11808 315.809447,1469.44808 C310.476447,1538.77808 353.142447,1618.77808 353.142447,1618.77808 C353.142447,1618.77808 246.476447,1501.44808 235.809447,1544.11808 C225.142447,1586.77808 278.476447,1656.11808 278.476447,1656.11808 C278.476447,1656.11808 193.142447,1581.44808 193.142447,1624.11808 C193.142447,1666.77808 277.291447,1721.29808 277.291447,1721.29808 L508.402447,1721.29808 L470.476447,1672.11808" id="Fill-13" fill="#456965"></path>
                <path d="M1010.91945,1720.11808 C1010.91945,1720.11808 1099.80945,1270.33808 1057.13945,1316.55808 C1014.47945,1362.77808 961.139447,1633.00808 961.139447,1633.00808 C961.139447,1633.00808 911.369447,1371.66808 904.249447,1449.88808 C897.139447,1528.11808 897.139447,1716.55808 897.139447,1716.55808 L1010.91945,1720.11808" id="Fill-14" fill="#456965"></path>
                <path d="M143.505447,1330.32808 L143.505447,1330.32808 C131.396447,1333.45808 119.044447,1326.17808 115.915447,1314.06808 L91.1304471,1218.14808 C88.0014471,1206.03808 95.2804471,1193.68808 107.389447,1190.55808 C119.498447,1187.42808 131.850447,1194.70808 134.979447,1206.81808 L159.764447,1302.73808 C162.893447,1314.84808 155.613447,1327.19808 143.505447,1330.32808" id="Fill-15" fill="#772E25"></path>
                <path d="M1029.15945,1205.46808 L1029.15945,1205.46808 C1018.70945,1198.59808 1015.80945,1184.55808 1022.66945,1174.10808 L1077.08945,1091.31808 C1083.95945,1080.86808 1097.99945,1077.96808 1108.44945,1084.83808 C1118.89945,1091.69808 1121.79945,1105.74808 1114.92945,1116.19808 L1060.51945,1198.98808 C1053.64945,1209.43808 1039.60945,1212.33808 1029.15945,1205.46808" id="Fill-16" fill="#772E25"></path>
                <path d="M1304.20945,1242.58808 L1304.20945,1242.58808 C1295.45945,1233.63808 1295.61945,1219.30808 1304.55945,1210.55808 L1375.38945,1141.28808 C1384.32945,1132.54808 1398.66945,1132.70808 1407.40945,1141.64808 C1416.15945,1150.58808 1415.99945,1164.92808 1407.05945,1173.66808 L1336.22945,1242.93808 C1327.28945,1251.68808 1312.94945,1251.52808 1304.20945,1242.58808" id="Fill-17" fill="#772E25"></path>
                <path d="M1046.47945,1720.11808 C1046.47945,1720.11808 1233.13945,1373.44808 1307.80945,1378.77808 C1382.47945,1384.11808 1227.80945,1640.11808 1227.80945,1640.11808 C1227.80945,1640.11808 1457.13945,1352.11808 1430.47945,1448.11808 C1403.80945,1544.11808 1339.80945,1645.44808 1339.80945,1645.44808 C1339.80945,1645.44808 1499.80945,1469.44808 1510.47945,1528.11808 C1521.13945,1586.77808 1393.13945,1725.44808 1393.13945,1725.44808 L1046.47945,1720.11808" id="Fill-18" fill="#456965"></path>
                <path d="M980.699447,1718.33808 C970.109447,1717.01808 1106.91945,1421.44808 1131.80945,1449.88808 C1156.69945,1478.33808 1090.74945,1723.95808 1090.74945,1723.95808 C1090.74945,1723.95808 1009.13945,1721.88808 980.699447,1718.33808" id="Fill-19" fill="#456965"></path>
                <path d="M1215.60945,111.08008 C1215.60945,111.08008 1241.16945,25.62208 1269.11945,8.05008 C1297.06945,-9.51992 1276.30945,35.20608 1276.30945,35.20608 C1276.30945,35.20608 1283.49945,33.60808 1282.69945,45.58808 C1281.89945,57.56808 1276.30945,66.35408 1276.30945,66.35408 C1276.30945,66.35408 1285.08945,64.75608 1284.29945,75.13908 C1283.49945,85.52208 1276.30945,97.50108 1276.30945,97.50108 C1276.30945,97.50108 1288.28945,95.90508 1285.08945,109.48208 C1281.89945,123.05908 1285.88945,169.38208 1215.60945,111.08008" id="Fill-20" fill="#5E5D91"></path>
                <polyline id="Fill-21" fill="#36251C" points="1160.69945 150.67008 1148.02945 161.11508 1169.28945 159.00008 1160.69945 150.67008"></polyline>
                <path d="M1169.28945,136.63608 C1166.88945,136.63608 1136.08945,141.62908 1136.08945,141.62908 L1169.28945,159.00008 L1169.28945,136.63608" id="Fill-22" fill="#36251C"></path>
                <path d="M1167.67945,169.75008 C1161.88945,157.19808 1163.06945,142.50008 1171.03945,131.20808 C1180.16945,118.27208 1196.95945,102.79708 1224.38945,104.69008 C1270.71945,107.88408 1294.67945,139.03308 1341.79945,143.82508 C1388.91945,148.61708 1380.92945,147.81808 1404.88945,142.22708 C1428.84945,136.63608 1451.21945,107.08508 1457.60945,111.87708 C1463.99945,116.66908 1455.20945,120.66408 1461.59945,124.65708 C1467.98945,128.65008 1475.97945,127.05208 1475.17945,131.84408 C1474.37945,136.63608 1466.38945,140.63008 1472.77945,144.62408 C1479.16945,148.61708 1483.15945,151.81108 1476.76945,155.00608 C1470.37945,158.20108 1420.06945,149.41608 1398.50945,162.99308 C1376.93945,176.57008 1368.94945,234.87308 1283.49945,237.26908 C1218.29945,239.09708 1180.98945,198.62008 1167.67945,169.75008" id="Fill-23" fill="#6D6CA8"></path>
                <path d="M1226.78945,159.00008 C1226.78945,159.00008 1307.45945,111.87708 1330.61945,11.24608 C1330.61945,11.24608 1333.80945,-6.32592 1345.78945,2.46008 C1357.76945,11.24608 1355.37945,41.59508 1355.37945,41.59508 C1355.37945,41.59508 1370.54945,32.01108 1374.54945,43.99108 C1378.53945,55.97108 1369.74945,71.94408 1369.74945,71.94408 C1369.74945,71.94408 1380.92945,66.35408 1381.72945,83.92408 C1382.52945,101.49508 1372.14945,118.26708 1372.14945,118.26708 C1372.14945,118.26708 1378.53945,104.69008 1378.53945,122.26008 C1378.53945,139.83208 1364.95945,151.81108 1364.95945,151.81108 C1364.95945,151.81108 1331.63945,196.74108 1273.56945,189.62908 C1222.63945,183.39408 1224.38945,166.98608 1226.78945,159.00008" id="Fill-24" fill="#8483CC"></path>
                <path d="M1183.65945,144.62408 C1183.65945,147.71008 1186.16945,150.21408 1189.24945,150.21408 C1192.33945,150.21408 1194.83945,147.71008 1194.83945,144.62408 C1194.83945,141.53608 1192.33945,139.03308 1189.24945,139.03308 C1186.16945,139.03308 1183.65945,141.53608 1183.65945,144.62408" id="Fill-25" fill="#36251C"></path>
                <path d="M1372.08945,217.78608 C1353.88945,217.78608 1347.76945,210.14308 1347.45945,209.74008 C1346.74945,208.80908 1346.91945,207.47708 1347.84945,206.76308 C1348.77945,206.05208 1350.09945,206.22508 1350.80945,207.13808 C1350.96945,207.32108 1359.43945,217.22408 1386.92945,212.02208 C1388.07945,211.80108 1389.18945,212.56208 1389.40945,213.71308 C1389.62945,214.86608 1388.86945,215.97608 1387.71945,216.19408 C1381.71945,217.32808 1376.53945,217.78608 1372.08945,217.78608" id="Fill-26" fill="#36251C"></path>
                <path d="M1481.27945,505.03208 C1481.27945,505.03208 1462.46945,601.93308 1480.84945,633.50808 C1499.23945,665.08308 1501.83945,610.57608 1501.83945,610.57608 C1501.83945,610.57608 1508.06945,615.83208 1513.42945,603.67608 C1518.79945,591.52108 1517.82945,580.03908 1517.82945,580.03908 C1517.82945,580.03908 1525.61945,586.11408 1530.16945,575.52508 C1534.71945,564.93508 1533.81945,549.50008 1533.81945,549.50008 C1533.81945,549.50008 1544.73945,557.21608 1548.57945,542.26508 C1552.41945,527.31408 1580.10945,483.94908 1481.27945,505.03208" id="Fill-27" fill="#5E5D91"></path>
                <path d="M1440.65945,453.85208 C1438.26945,454.04208 1407.95945,461.47508 1407.95945,461.47508 L1442.43945,476.14308 L1440.65945,453.85208" id="Fill-28" fill="#36251C"></path>
                <path d="M1441.68945,486.98708 C1434.91945,474.93708 1434.92945,460.19208 1441.96945,448.30008 C1450.04945,434.67808 1465.54945,417.91508 1493.03945,417.61308 C1539.46945,417.10508 1565.83945,446.24408 1613.18945,447.26408 C1660.54945,448.28408 1652.51945,448.12508 1675.95945,440.64208 C1699.39945,433.15908 1719.33945,401.91908 1726.08945,406.18608 C1732.83945,410.45408 1724.39945,415.13508 1731.08945,418.60608 C1737.76945,422.07808 1745.60945,419.84808 1745.18945,424.68908 C1744.77945,429.53008 1737.13945,434.14708 1743.81945,437.61808 C1750.50945,441.08908 1754.74945,443.95608 1748.62945,447.64908 C1742.51945,451.34308 1691.65945,446.59708 1671.24945,461.85008 C1650.82945,477.10408 1647.51945,535.85808 1562.52945,545.05908 C1497.67945,552.07908 1457.26945,514.70408 1441.68945,486.98708" id="Fill-29" fill="#6D6CA8"></path>
                <path d="M1455.61945,460.66708 C1455.86945,463.74508 1458.56945,466.04108 1461.63945,465.79408 C1464.71945,465.54808 1467.01945,462.85308 1466.76945,459.77608 C1466.51945,456.69808 1463.82945,454.40208 1460.74945,454.64808 C1457.66945,454.89408 1455.37945,457.58908 1455.61945,460.66708" id="Fill-30" fill="#36251C"></path>
                <path d="M1636.28945,534.76308 C1617.40945,534.76308 1612.06945,518.58108 1612.00945,518.38908 C1611.64945,517.27108 1612.27945,516.07908 1613.38945,515.72708 C1614.50945,515.37708 1615.69945,515.99508 1616.04945,517.11008 C1616.29945,517.86808 1622.24945,535.41508 1645.76945,529.16908 C1646.90945,528.86608 1648.06945,529.54308 1648.36945,530.67608 C1648.66945,531.80908 1647.99945,532.97208 1646.85945,533.27308 C1642.93945,534.31508 1639.41945,534.76308 1636.28945,534.76308" id="Fill-31" fill="#36251C"></path>
                <path d="M1501.16945,477.02708 C1501.16945,477.02708 1560.55945,549.14408 1547.47945,651.57608 C1547.47945,651.57608 1544.39945,669.16708 1558.67945,665.06808 C1572.95945,660.96908 1581.20945,631.66508 1581.20945,631.66508 C1581.20945,631.66508 1592.12945,645.90708 1600.01945,636.04708 C1607.90945,626.18908 1605.18945,608.16308 1605.18945,608.16308 C1605.18945,608.16308 1613.74945,617.27608 1620.57945,601.06608 C1627.40945,584.85708 1623.46945,565.52808 1623.46945,565.52808 C1623.46945,565.52808 1624.75945,580.47808 1630.83945,563.99208 C1636.91945,547.50508 1628.32945,531.56908 1628.32945,531.56908 C1628.32945,531.56908 1616.93945,505.35308 1567.69945,486.86008 C1539.62945,476.32008 1501.68945,468.70508 1501.16945,477.02708" id="Fill-32" fill="#8483CC"></path>
                <path d="M868.076447,342.63808 C868.076447,342.63808 863.358447,388.87108 773.723447,425.66808 C698.355447,456.60908 720.523447,362.47808 720.523447,362.47808 C720.523447,362.47808 849.012447,328.00008 868.076447,342.63808" id="Fill-33" fill="#54211A"></path>
                <path d="M466.284447,509.47408 C466.284447,509.47408 556.895447,519.02608 574.186447,485.47908 C591.478447,451.93208 529.105447,445.25808 529.105447,445.25808 C529.105447,445.25808 465.585447,477.05708 466.284447,509.47408" id="Fill-34" fill="#54211A"></path>
                <polyline id="Fill-35" fill="#772E25" points="918.319447 1722.22808 907.289447 1532.95808 455.839447 1530.40808 447.170447 1722.22808 918.319447 1722.22808"></polyline>
                <polyline id="Fill-36" fill="#59221C" points="801.004447 1725.77808 802.743447 1628.40808 798.419447 1628.32808 796.678447 1725.77808 801.004447 1725.77808"></polyline>
                <path d="M634.238447,634.79708 L590.509447,586.20808 L626.532447,576.63208 C626.532447,576.63208 633.095447,609.84808 641.000447,623.18008 C648.905447,636.51108 634.238447,634.79708 634.238447,634.79708" id="Fill-37" fill="#36251C"></path>
                <path d="M620.485447,480.24508 C620.447447,485.36508 618.318447,626.95708 617.765447,700.70208 C617.584447,724.89008 548.199447,757.74608 548.199447,757.74608 C548.199447,757.74608 680.455447,836.72308 724.201447,837.051862 C767.948447,837.37908 812.202447,734.44108 812.202447,734.44108 L767.843447,697.22308 L768.875447,581.09408 L620.485447,480.24508" id="Fill-38" fill="#FFB581"></path>
                <path d="M804.645447,443.80108 C804.645447,443.80108 803.278447,397.55008 791.068447,371.92608 C778.858447,346.30208 737.869447,348.29908 737.869447,348.29908 C737.869447,348.29908 788.522447,362.64708 804.645447,443.80108" id="Fill-39" fill="#36251C"></path>
                <path d="M769.055447,674.46008 C703.668447,697.57108 639.049447,649.00908 617.134447,587.00508 L582.379447,488.67608 C560.464447,426.67208 590.859447,359.38408 650.269447,338.38608 C709.680447,317.38708 775.608447,350.63008 797.523447,412.63308 L832.277447,510.96108 C854.193447,572.96608 834.442447,651.34908 769.055447,674.46008" id="Fill-40" fill="#FFB581"></path>
                <path d="M705.209447,461.71208 C701.124447,459.67908 696.051447,459.70908 691.601447,459.90308 C687.092447,460.09908 682.714447,460.96808 678.420447,462.33808 C674.270447,463.66408 670.364447,465.53208 666.704447,467.89108 C663.014447,470.26908 659.009447,473.30808 656.956447,477.24908 C655.756447,479.55108 658.897447,482.40008 661.102447,481.09308 C664.394447,479.14308 667.080447,476.33408 670.408447,474.37108 C673.646447,472.45908 677.129447,470.85308 680.757447,469.83708 C684.241447,468.86208 687.899447,468.23608 691.521447,468.15908 C695.546447,468.07308 699.474447,469.03008 703.474447,469.07708 C707.881447,469.12808 709.127447,463.66308 705.209447,461.71208" id="Fill-41" fill="#36251C"></path>
                <g id="Group-44" transform="translate(654.991447, 645.592080)">
                    <mask id="mask-2" fill="white">
                        <use xlink:href="#path-1"></use>
                    </mask>
                    <g id="Clip-43"></g>
                    <polygon id="Fill-42" fill="#DE7A4A" mask="url(#mask-2)" points="0 48.764 112.207 48.764 112.207 2.27373675e-13 0 2.27373675e-13"></polygon>
                </g>
                <path d="M735.320447,680.32108 C705.320447,680.32108 677.095447,666.73208 654.991447,645.59208 C652.168447,641.04708 650.782447,638.00108 650.560447,637.71408 C687.499447,669.90208 728.319447,675.33908 750.553447,675.33908 C760.425447,675.33908 766.637447,674.26608 767.210447,673.98708 L767.198447,675.09708 C756.481447,678.66508 745.790447,680.32108 735.320447,680.32108" id="Fill-45" fill="#DE7A4A"></path>
                <path d="M780.758447,576.92908 C780.758447,576.92908 738.851447,583.82408 718.233447,571.73708 C718.233447,571.73708 743.305447,604.49808 760.466447,604.18908 C777.626447,603.88008 780.758447,576.92908 780.758447,576.92908" id="Fill-46" fill="#FFFFFF"></path>
                <path d="M699.945447,495.56208 C701.592447,500.22208 699.150447,505.33408 694.490447,506.98208 C689.831447,508.62808 684.718447,506.18608 683.071447,501.52708 C681.424447,496.86708 683.866447,491.75408 688.526447,490.10808 C693.186447,488.46008 698.298447,490.90308 699.945447,495.56208" id="Fill-47" fill="#36251C"></path>
                <path d="M795.369447,465.45908 C797.016447,470.12008 794.574447,475.23208 789.914447,476.87808 C785.255447,478.52608 780.142447,476.08308 778.495447,471.42408 C776.848447,466.76408 779.290447,461.65108 783.950447,460.00408 C788.610447,458.35808 793.722447,460.80008 795.369447,465.45908" id="Fill-48" fill="#36251C"></path>
                <path d="M567.159447,573.00708 C580.388447,591.22108 602.259447,597.88908 616.010447,587.90108 C641.562447,569.34108 630.182447,555.05208 616.953447,536.84008 C603.724447,518.62508 581.853447,511.95708 568.103447,521.94508 C554.352447,531.93308 553.929447,554.79308 567.159447,573.00708" id="Fill-49" fill="#FFB581"></path>
                <path d="M596.471447,575.38108 C591.002447,575.38108 585.677447,573.08408 581.272447,569.94408 C576.340447,566.42708 572.404447,561.46208 570.100447,555.86208 C567.979447,550.70408 566.736447,543.75308 570.010447,538.77808 C571.645447,536.29308 574.718447,534.77408 577.677447,534.77408 C579.841447,534.77408 581.943447,535.58608 583.378447,537.42508 C583.894447,538.08608 583.231447,539.01408 582.543447,539.01408 C582.348447,539.01408 582.151447,538.94008 581.978447,538.76308 C580.999447,537.76408 579.752447,537.29808 578.481447,537.29808 C577.299447,537.29808 576.096447,537.70108 575.070447,538.45308 C572.828447,540.09408 571.996447,543.14108 571.994447,545.79508 C571.990447,551.48508 574.706447,557.17908 578.278447,561.48008 C581.906447,565.84708 587.074447,569.38008 592.657447,570.64808 C593.844447,570.91708 595.080447,571.06608 596.315447,571.06608 C597.770447,571.06608 599.224447,570.86008 600.593447,570.40408 C602.758447,569.68308 605.319447,568.00408 606.421447,565.99508 C606.631447,565.61108 607.075447,565.40208 607.493447,565.40208 C607.982447,565.40208 608.437447,565.68808 608.443447,566.31508 C608.469447,568.81208 607.749447,571.15708 605.703447,572.69908 C603.542447,574.32808 600.683447,575.10308 598.022447,575.31908 C597.504447,575.36108 596.987447,575.38108 596.471447,575.38108" id="Fill-50" fill="#DE7A4A"></path>
                <path d="M685.947447,290.03708 C595.329447,293.57508 573.534447,309.25008 558.381447,335.12508 C549.052447,351.05208 541.603447,371.03508 545.441447,407.89908 C535.494447,389.27108 531.556447,367.82708 536.580447,346.89408 C542.043447,324.13708 557.458447,304.51708 577.186447,292.24008 C578.375447,291.50008 577.328447,289.35508 576.039447,290.00408 C554.147447,301.04208 538.360447,321.75108 532.577447,345.52708 C527.064447,368.19108 531.208447,393.62508 544.280447,413.07308 C538.975447,417.65408 507.416447,432.02308 512.680447,452.71608 C520.802447,484.64608 543.788447,532.06808 557.340447,542.03708 C566.776447,510.58508 590.332447,522.16708 591.106447,523.80908 C600.654447,544.05108 607.418447,556.53408 607.418447,556.53408 L619.576447,551.26608 C619.576447,551.26608 611.295447,533.86908 607.538447,517.26908 C603.779447,500.67008 601.248447,492.98708 617.896447,474.44808 C634.542447,455.90808 601.885447,414.05908 601.885447,414.05908 C601.885447,414.05908 615.130447,430.41208 638.366447,417.45008 C644.271447,414.15508 654.631447,391.39508 666.721447,385.37508 C687.909447,374.82808 716.754447,382.95808 736.148447,386.95808 C790.782447,398.23008 796.779447,358.82908 796.265447,338.82008 C795.521447,309.84508 738.818447,287.97108 685.947447,290.03708" id="Fill-51" fill="#36251C"></path>
                <path d="M929.409447,767.22508 C929.409447,767.22508 1067.94945,805.22208 1079.42945,792.70108 C1100.38945,769.83108 1022.19945,528.01608 1022.19945,528.01608 L1098.93945,515.43508 C1098.93945,515.43508 1338.60945,942.91808 1167.16945,976.68808 C980.359447,1013.48808 881.285447,971.02808 881.285447,971.02808 L929.409447,767.22508" id="Fill-52" fill="#FFB581"></path>
                <path d="M1139.36945,841.33808 C1098.47945,806.07808 1079.42945,792.70108 1079.42945,792.70108 C1079.42945,792.70108 1120.69945,813.18908 1139.36945,841.33808" id="Fill-53" fill="#DE7A4A"></path>
                <path d="M1025.64945,781.37808 C975.639447,768.16808 842.463447,735.48508 842.463447,735.48508 L798.255447,1012.53808 C798.255447,1012.53808 939.779447,1016.31808 1034.13945,1004.99808 C1034.13945,1004.99808 1044.51945,834.21508 1025.64945,781.37808" id="Fill-54" fill="#343452"></path>
                <path d="M526.519447,744.58108 C526.519447,744.58108 383.103447,680.42008 273.653447,759.67708 C164.204447,838.93308 235.912447,1295.59808 266.105447,1374.85808 C296.298447,1454.11808 447.262447,1416.36808 492.551447,1393.72808 C537.841447,1371.07808 526.519447,744.58108 526.519447,744.58108" id="Fill-55" fill="#C44536"></path>
                <path d="M402.477447,1381.88808 C402.107447,1381.88808 401.752447,1381.68808 401.578447,1381.32808 L357.133447,1290.66808 C356.890447,1290.16808 357.095447,1289.56808 357.591447,1289.32808 C358.088447,1289.07808 358.686447,1289.28808 358.929447,1289.78808 L403.374447,1380.44808 C403.617447,1380.94808 403.412447,1381.54808 402.916447,1381.78808 C402.774447,1381.85808 402.624447,1381.88808 402.477447,1381.88808" id="Fill-56" fill="#7D2C23"></path>
                <path d="M381.141447,1220.11808 C380.946447,1220.11808 380.749447,1220.05808 380.576447,1219.93808 C338.753447,1191.18808 256.851447,1209.23808 256.029447,1209.42808 C255.490447,1209.54808 254.956447,1209.20808 254.834447,1208.66808 C254.712447,1208.12808 255.050447,1207.59808 255.589447,1207.46808 C256.420447,1207.28808 339.174447,1189.04808 381.709447,1218.28808 C382.164447,1218.60808 382.279447,1219.22808 381.966447,1219.67808 C381.773447,1219.96808 381.460447,1220.11808 381.141447,1220.11808" id="Fill-57" fill="#7D2C23"></path>
                <path d="M744.375447,789.74608 C734.636447,780.00608 716.094447,758.16508 705.418447,754.26708 C653.187447,735.19908 607.048447,714.62808 599.330447,718.78908 C553.843447,743.31008 402.111447,785.57208 402.111447,821.05008 C402.111447,1050.10808 464.720447,1554.29808 464.720447,1554.29808 L910.219447,1554.29808 C910.219447,1554.29808 907.289447,1234.32808 891.989447,1034.21808 C881.817447,901.23808 938.419447,788.51808 893.589447,750.09308 C886.290447,743.83308 798.636447,715.65808 777.767447,713.22308 C777.767447,713.22308 770.462447,749.57208 744.375447,789.74608" id="Fill-58" fill="#343452"></path>
                <path d="M911.479447,744.58108 C911.479447,744.58108 958.479447,1535.84808 934.119447,1556.95808 C919.969447,1569.22808 842.833447,1598.22808 843.544447,1572.99808 C851.092447,1305.03808 820.899447,944.60808 817.125447,876.67408 C814.497447,829.37508 810.115447,739.65908 825.767447,730.26708 C841.420447,720.87508 911.479447,744.58108 911.479447,744.58108" id="Fill-59" fill="#6D6CA8"></path>
                <path d="M896.439447,1353.41808 C887.643447,1353.41808 879.235447,1350.99808 874.835447,1346.80808 C868.225447,1340.50808 865.111447,1280.20808 864.631447,1241.21808 C864.384447,1221.19808 864.513447,1187.07808 868.143447,1183.44808 C875.202447,1176.38808 888.709447,1177.64808 889.283447,1177.70808 L889.003447,1180.51808 C888.874447,1180.50808 876.249447,1179.33808 870.141447,1185.44808 C867.932447,1188.03808 866.477447,1218.99808 867.992447,1264.45808 C869.450447,1308.19808 873.065447,1341.21808 876.783447,1344.75808 C882.036447,1349.75808 894.499447,1351.93808 905.159447,1349.71808 C912.059447,1348.28808 916.799447,1345.26808 918.509447,1341.22808 L921.109447,1342.32808 C919.029447,1347.24808 913.569447,1350.85808 905.729447,1352.48808 C902.689447,1353.11808 899.539447,1353.41808 896.439447,1353.41808" id="Fill-60" fill="#545482"></path>
                <path d="M900.789447,733.88708 C900.789447,733.88708 902.039447,754.01608 910.849447,818.17508 C920.839447,890.92808 949.529447,1198.10808 942.929447,1260.37808 C940.329447,1284.87808 936.429447,1265.83808 913.989447,1252.82808 C851.092447,1216.34808 864.019447,1126.74808 858.640447,1088.02808 C852.301447,1042.38808 835.367447,903.71808 827.819447,811.88508 C821.439447,734.26808 794.750447,711.33608 794.750447,711.33608 C794.750447,711.33608 864.301447,717.53308 900.789447,733.88708" id="Fill-61" fill="#C44536"></path>
                <path d="M744.375447,789.74608 L757.941447,741.74608 C757.941447,741.74608 780.754447,735.64708 767.843447,697.22308 C767.280447,695.54608 767.462447,693.74508 768.028447,692.35308 C768.028447,692.35308 788.897447,704.87508 791.680447,717.39708 C794.463447,729.91908 811.158447,756.35408 794.463447,786.96308 C794.463447,786.96308 777.767447,756.35408 768.028447,753.57208 L744.375447,789.74608" id="Fill-62" fill="#44446B"></path>
                <path d="M575.330447,736.52808 C585.153447,735.30308 683.276447,810.93508 711.450447,876.67408 C739.624447,942.41808 739.712447,1552.96808 730.320447,1574.88808 C720.929447,1596.79808 459.502447,1584.88808 440.719447,1562.96808 C421.937447,1541.05808 374.980447,1002.61808 387.502447,949.39808 C400.023447,896.17808 382.816447,760.52808 575.330447,736.52808" id="Fill-63" fill="#6D6CA8"></path>
                <path d="M589.939447,1356.22808 C568.880447,1356.22808 549.408447,1355.19808 538.164447,1352.85808 C531.771447,1351.52808 528.349447,1349.85808 527.396447,1347.59808 C522.150447,1335.18808 503.979447,1217.38808 520.507447,1197.82808 C536.737447,1178.61808 651.789447,1176.87808 656.679447,1176.80808 L656.716447,1179.63808 C655.532447,1179.65808 538.071447,1181.41808 522.667447,1199.64808 C507.190447,1217.96808 524.878447,1334.37808 530.000447,1346.49808 C530.192447,1346.95808 531.391447,1348.55808 538.740447,1350.08808 C571.644447,1356.93808 672.170447,1351.81808 679.427447,1344.90808 C688.646447,1336.12808 688.480447,1275.74808 684.012447,1269.79808 L686.272447,1268.09808 C689.515447,1272.41808 690.343447,1291.17808 689.739447,1306.76808 C689.350447,1316.82808 687.757447,1340.87808 681.376447,1346.94808 C675.538447,1352.50808 629.894447,1356.22808 589.939447,1356.22808" id="Fill-64" fill="#545482"></path>
                <path d="M596.365447,1252.38808 C591.912447,1252.38808 587.435447,1251.90808 583.003447,1250.95808 L515.956447,1236.49808 L516.551447,1233.72808 L583.599447,1248.19808 C598.482447,1251.40808 613.895447,1248.90808 627.004447,1241.15808 L684.424447,1207.22808 L685.861447,1209.66808 L628.441447,1243.59808 C618.623447,1249.39808 607.568447,1252.38808 596.365447,1252.38808" id="Fill-65" fill="#545482"></path>
                <path d="M617.571447,1553.32808 C607.049447,1553.32808 596.384447,1552.89808 586.417447,1552.03808 C567.764447,1550.42808 544.773447,1546.74808 541.171447,1538.33808 C536.210447,1526.76808 521.757447,1411.80808 538.720447,1391.53808 C554.996447,1372.07808 664.579447,1379.15808 669.237447,1379.47808 L669.048447,1382.30808 C667.921447,1382.23808 556.256447,1374.99808 540.899447,1393.35808 C534.429447,1401.08808 532.103447,1428.08808 534.518447,1467.43808 C536.462447,1499.09808 541.094447,1530.94808 543.781447,1537.21808 C548.756447,1548.82808 614.007447,1553.65808 656.184447,1548.31808 C680.889447,1545.18808 683.521447,1540.31808 683.738447,1538.89808 C686.392447,1521.64808 686.388447,1497.81808 683.725447,1456.62808 L686.560447,1456.43808 C689.237447,1497.84808 689.233447,1521.86808 686.546447,1539.32808 C685.714447,1544.74808 675.618447,1548.71808 656.541447,1551.13808 C645.086447,1552.58808 631.452447,1553.32808 617.571447,1553.32808" id="Fill-66" fill="#545482"></path>
                <path d="M609.765447,1044.87808 C609.765447,1107.98808 566.317447,1159.13808 512.720447,1159.13808 C459.124447,1159.13808 415.675447,1107.98808 415.675447,1044.87808 C415.675447,981.77808 459.124447,930.61808 512.720447,930.61808 C566.317447,930.61808 609.765447,981.77808 609.765447,1044.87808" id="Fill-67" fill="#282840"></path>
                <path d="M1098.93945,515.43508 C1098.93945,515.43508 1085.09945,489.01608 1085.09945,457.56608 C1085.09945,426.11508 1071.05945,380.22208 1058.47945,376.44808 C1045.89945,372.67408 1058.67945,400.95408 1058.67945,400.95408 C1058.67945,400.95408 1040.32945,359.27908 1027.06945,369.92908 C1018.02945,377.19208 1027.22945,392.14808 1027.22945,392.14808 C1027.22945,392.14808 1013.07945,370.13308 1003.00945,373.90608 C992.949447,377.68008 1015.90945,404.72808 1015.90945,404.72808 C1015.90945,404.72808 995.779447,395.92108 989.489447,403.47008 C983.199447,411.01808 986.969447,409.76008 1002.06945,423.59808 C1017.16945,437.43708 1012.44945,460.71008 1008.67945,497.50808 C1006.17945,521.80708 1068.74945,565.75608 1098.93945,515.43508" id="Fill-68" fill="#FFB581"></path>
                <polyline id="Fill-69" fill="#36251C" points="940.449447 494.68608 918.849447 426.96208 1061.19945 370.76108 1085.09945 457.56608 940.449447 494.68608"></polyline>
                <path d="M986.479447,516.89208 C979.219447,509.81308 959.109447,484.14408 966.029447,470.67008 C969.739447,463.46208 988.569447,467.98508 999.219447,474.22608 C1002.58945,476.20408 1005.99945,479.15708 1009.27945,482.54408 C1017.59945,491.13608 1025.13945,502.52308 1029.42945,507.88708 C1034.28945,513.96308 1068.29945,545.36308 1051.95945,547.70708 C1028.62945,551.05408 1009.01945,538.89408 986.479447,516.89208" id="Fill-70" fill="#FFB581"></path>
                <path d="M1111.46945,405.88108 C1117.64945,432.28508 1106.61945,457.44708 1086.82945,462.08308 C1067.03945,466.71808 1045.98945,449.07308 1039.79945,422.66908 C1033.61945,396.26608 1044.64945,371.10408 1064.42945,366.46808 C1084.21945,361.83308 1105.27945,379.47808 1111.46945,405.88108" id="Fill-71" fill="#C44536"></path>
                <path d="M1070.88945,370.82908 C1069.11945,370.82908 1067.34945,371.02808 1065.59945,371.43908 C1048.57945,375.42508 1039.23945,397.88408 1044.76945,421.50508 C1050.30945,445.12508 1068.65945,461.09208 1085.66945,457.11208 C1093.63945,455.24608 1100.21945,449.20308 1104.20945,440.09508 C1108.42945,430.48508 1109.23945,418.74808 1106.49945,407.04508 C1101.52945,385.86208 1086.25945,370.82908 1070.88945,370.82908 Z M1080.50945,467.91708 C1060.42945,467.91708 1040.89945,449.71808 1034.82945,423.83308 C1028.00945,394.73208 1040.76945,366.76808 1063.26945,361.49808 C1085.76945,356.23508 1109.61945,375.61608 1116.43945,404.71708 C1119.67945,418.55508 1118.65945,432.57508 1113.56945,444.19408 C1108.24945,456.31708 1099.16945,464.43508 1087.99945,467.05308 C1085.50945,467.63508 1082.99945,467.91708 1080.50945,467.91708 L1080.50945,467.91708 Z" id="Fill-72" fill="#36251C"></path>
                <path d="M924.159447,532.10608 C924.159447,532.10608 958.169447,472.93708 946.519447,471.03308 C934.879447,469.12708 882.878447,468.28308 886.053447,497.33708 C889.228447,526.39108 924.159447,532.10608 924.159447,532.10608" id="Fill-73" fill="#E6965E"></path>
                <polyline id="Fill-74" fill="#36251C" points="850.528447 500.96408 828.932447 433.24108 970.549447 373.91808 995.399447 468.65108 850.528447 500.96408"></polyline>
                <path d="M1021.75945,413.29408 C1027.10945,439.85808 1015.30945,464.64208 995.399447,468.65108 C975.489447,472.66008 955.009447,454.37608 949.669447,427.81308 C944.319447,401.25008 956.119447,376.46508 976.029447,372.45708 C995.939447,368.44808 1016.41945,386.73208 1021.75945,413.29408" id="Fill-75" fill="#C44536"></path>
                <path d="M981.619447,377.76908 C980.139447,377.76908 978.659447,377.91308 977.189447,378.20908 C969.419447,379.77508 962.839447,385.45408 958.669447,394.20108 C954.239447,403.51708 953.079447,415.04308 955.419447,426.65508 C960.119447,450.00308 977.539447,466.26408 994.239447,462.89808 C1002.01945,461.33308 1008.58945,455.65408 1012.75945,446.90808 C1017.18945,437.59008 1018.34945,426.06408 1016.00945,414.45308 C1011.71945,393.16408 996.869447,377.76908 981.619447,377.76908 Z M989.949447,475.06308 C969.149447,475.06308 949.319447,455.82608 943.909447,428.97108 C941.079447,414.88808 942.559447,400.74808 948.079447,389.15308 C953.869447,376.98908 963.389447,369.01608 974.869447,366.70408 C997.919447,362.05308 1021.53945,382.44408 1027.51945,412.13608 C1030.34945,426.21908 1028.86945,440.36008 1023.34945,451.95408 C1017.55945,464.11908 1008.03945,472.09108 996.559447,474.40408 C994.359447,474.84808 992.139447,475.06308 989.949447,475.06308 L989.949447,475.06308 Z" id="Fill-76" fill="#36251C"></path>
                <path d="M612.200447,699.31008 C612.200447,699.31008 677.591447,725.74608 717.940447,741.04908 L744.375447,789.74608 C744.375447,789.74608 722.393447,770.79408 708.201447,767.48508 C703.938447,766.49108 696.472447,805.92808 691.505447,805.05008 C644.083447,796.67008 573.402447,751.94208 589.939447,727.13608 C592.721447,722.96208 612.200447,699.31008 612.200447,699.31008" id="Fill-77" fill="#44446B"></path>
                <path d="M430.147447,1419.51808 C421.749447,1419.51808 413.168447,1419.24808 404.402447,1418.68808 C392.701447,1417.94808 383.818447,1407.85808 384.561447,1396.15808 C385.304447,1384.45808 395.403447,1375.57808 407.092447,1376.31808 C477.166447,1380.76808 532.668447,1365.27808 572.063447,1330.27808 C628.907447,1279.78808 633.600447,1205.54808 633.641447,1204.80808 C634.283447,1193.09808 644.286447,1184.10808 656.000447,1184.76808 C667.707447,1185.40808 676.677447,1195.41808 676.036447,1207.12808 C675.830447,1210.88808 670.188447,1299.90808 600.261447,1362.02808 C557.251447,1400.22808 500.111447,1419.51808 430.147447,1419.51808" id="Fill-78" fill="#36251C"></path>
                <path d="M529.035447,740.80608 C529.035447,740.80608 620.871447,696.77508 691.505447,805.05008 C731.626447,866.55308 728.434447,1174.82808 708.619447,1228.60808 C688.805447,1282.38808 595.396447,1259.74808 603.888447,1214.45808 C612.380447,1169.16808 637.855447,931.39808 612.380447,857.80408 C586.904447,784.20808 448.206447,778.54708 448.206447,778.54708 C448.206447,778.54708 492.489447,743.19808 529.035447,740.80608" id="Fill-79" fill="#C44536"></path>
                <path d="M448.206447,779.54708 C447.913447,779.54708 447.622447,779.41808 447.424447,779.17108 C447.080447,778.74008 447.150447,778.11108 447.582447,777.76608 C448.027447,777.41108 492.382447,742.31308 528.783447,739.82108 C531.100447,738.76508 555.178447,728.26008 586.938447,731.61308 C587.487447,731.67008 587.885447,732.16308 587.828447,732.71108 C587.770447,733.26008 587.272447,733.66108 586.728447,733.60108 C554.064447,730.16108 529.709447,741.59208 529.467447,741.70808 L529.293447,741.79208 L529.100447,741.80408 C493.292447,744.14708 449.270447,778.97708 448.830447,779.32908 C448.645447,779.47608 448.425447,779.54708 448.206447,779.54708" id="Fill-80" fill="#822E24"></path>
                <path d="M637.939447,879.48608 C637.939447,879.48608 751.366447,901.95808 768.062447,884.22808 C803.251447,846.83408 835.996447,565.31008 835.996447,565.31008 L913.419447,614.44008 C913.419447,614.44008 978.729447,979.37808 896.379447,1050.28808 C828.447447,1108.77808 541.615447,1080.47808 541.615447,1080.47808 L637.939447,879.48608" id="Fill-81" fill="#FFB581"></path>
                <path d="M696.375447,881.70708 C595.711447,859.06208 547.119447,768.12708 492.551447,771.00008 C348.308447,778.59108 363.501447,958.78808 415.675447,1040.18808 C445.972447,1087.44808 580.478447,1104.13808 694.288447,1097.15808 L696.375447,881.70708" id="Fill-82" fill="#343452"></path>
                <path d="M840.172447,659.86408 C840.609447,654.91108 837.981447,613.12008 826.001447,574.75808 C816.464447,544.22208 803.934447,516.83108 806.692447,485.11108 C809.450447,453.38908 845.650447,405.69008 862.084447,405.69008 C874.496447,405.69008 861.536447,416.64508 861.536447,416.64508 C861.536447,416.64508 877.031447,396.84308 892.199447,396.84308 C907.369447,396.84308 868.657447,439.28808 868.657447,439.28808 C868.657447,439.28808 898.949447,396.90608 914.119447,399.66408 C929.299447,402.42208 871.579447,456.08708 900.799447,499.90908 C917.989447,525.69808 928.089447,512.63108 932.929447,578.06108 C935.849447,617.50108 919.029447,656.51808 919.029447,656.51808 C919.029447,656.51808 836.034447,706.75608 840.172447,659.86408" id="Fill-83" fill="#FFB581"></path>
                <path d="M828.673447,622.07008 C828.758447,620.89808 828.842447,619.72608 828.927447,618.55408 C829.038447,618.31108 829.145447,618.07408 829.254447,617.83008 C829.064447,619.22408 828.870447,620.63608 828.673447,622.07008 M814.101447,459.53708 L813.488447,457.80208 C816.054447,452.36808 819.013447,447.13308 822.219447,442.07408 C824.692447,438.16908 827.357447,434.39108 830.181447,430.73708 C833.009447,427.08708 835.980447,423.54408 839.196447,420.22808 C842.406447,416.91108 845.801447,413.75608 849.531447,411.02308 C851.397447,409.66408 853.345447,408.39708 855.437447,407.40508 C857.464447,406.44608 859.662447,405.68708 861.914447,405.68708 C861.970447,405.68708 862.027447,405.68808 862.084447,405.68908 C862.076447,405.68908 862.068447,405.68908 862.060447,405.69008 C853.941447,405.71308 841.016447,417.34208 829.677447,432.92908 L828.932447,433.24108 L829.091447,433.73908 C823.385447,441.69008 818.112447,450.62008 814.101447,459.53708" id="Fill-84" fill="#D19C82"></path>
                <path d="M828.927447,618.55408 C829.086447,616.38108 829.249447,614.20908 829.432447,612.03908 L830.323447,601.02208 C830.183447,596.46408 829.899447,591.91008 828.881447,587.52908 C827.875447,583.15008 826.155447,578.88108 824.769447,574.48408 C821.921447,565.78108 818.788447,557.16108 815.855447,548.44208 C812.894447,539.73708 810.139447,530.91608 808.116447,521.87508 C807.109447,517.35708 806.268447,512.79008 805.692447,508.18008 C805.144447,503.56808 804.843447,498.92008 804.840447,494.26608 C804.848447,491.93908 804.919447,489.61208 805.078447,487.28908 C805.224447,484.98308 805.461447,482.60608 805.881447,480.29808 C806.723447,475.67208 808.069447,471.18708 809.681447,466.82708 C810.819447,463.75708 812.095447,460.75008 813.488447,457.80208 L814.101447,459.53708 C810.116447,468.39808 807.376447,477.24408 806.692447,485.11108 C803.934447,516.83108 816.464447,544.22208 826.001447,574.75808 C828.107447,581.50308 829.925447,588.35708 831.488447,595.09508 C831.566447,597.04408 831.562447,598.99008 831.520447,600.92508 C830.835447,606.13008 830.079447,611.78608 829.254447,617.83008 C829.145447,618.07408 829.038447,618.31108 828.927447,618.55408" id="Fill-85" fill="#DE7A4A"></path>
                <path d="M829.091447,433.73908 L828.932447,433.24108 L829.677447,432.92908 C829.482447,433.19708 829.285447,433.46908 829.091447,433.73908" id="Fill-86" fill="#2F1910"></path>
                <path d="M828.598447,623.10408 C828.623447,622.75908 828.648447,622.41408 828.673447,622.07008 C828.870447,620.63608 829.064447,619.22408 829.254447,617.83008 C830.079447,611.78608 830.835447,606.13008 831.520447,600.92508 C831.519447,600.96408 831.518447,601.00208 831.517447,601.04108 L831.516447,601.08508 L831.514447,601.10308 L830.085447,612.10708 C829.623447,615.77608 829.102447,619.43908 828.598447,623.10408" id="Fill-87" fill="#DE7A4A"></path>
                <path d="M831.488447,595.09508 C829.925447,588.35708 828.107447,581.50308 826.001447,574.75808 C816.464447,544.22208 803.934447,516.83108 806.692447,485.11108 C807.376447,477.24408 810.116447,468.39808 814.101447,459.53708 C818.112447,450.62008 823.385447,441.69008 829.091447,433.73908 C829.285447,433.46908 829.482447,433.19708 829.677447,432.92908 C841.016447,417.34208 853.941447,405.71308 862.060447,405.69008 C859.762447,405.79108 857.602447,406.68108 855.619447,407.76208 C853.620447,408.85708 851.744447,410.16508 849.966447,411.59108 C846.406447,414.44608 843.188447,417.70808 840.160447,421.12008 C834.115447,427.96208 828.797447,435.42808 824.069447,443.22208 C819.376447,451.03308 815.273447,459.21608 812.212447,467.74508 C810.697447,472.01108 809.466447,476.37508 808.711447,480.79308 C808.321447,483.00608 808.113447,485.20308 807.977447,487.47708 C807.832447,489.73508 807.775447,491.99908 807.777447,494.26108 C807.823447,503.31908 809.038447,512.35308 810.985447,521.23808 C812.950447,530.12608 815.615447,538.87408 818.417447,547.59508 C821.248447,556.30908 824.202447,565.01408 826.852447,573.83008 C828.131447,578.21108 829.704447,582.55008 830.601447,587.16508 C831.123447,589.79508 831.381447,592.44708 831.488447,595.09508" id="Fill-88" fill="#DE7A4A"></path>
                <path d="M886.369447,417.72208 C888.002447,415.48408 889.543447,413.25408 890.887447,411.12608 C891.153447,410.86908 891.423447,410.61208 891.692447,410.35808 C891.784447,410.27108 891.889447,410.23308 891.999447,410.23308 C892.359447,410.23308 892.719447,410.67208 892.439447,411.01508 C891.729447,411.88508 891.026447,412.75808 890.328447,413.63308 C888.986447,414.96708 887.662447,416.33908 886.369447,417.72208" id="Fill-89" fill="#2F1910"></path>
                <path d="M857.536447,474.76408 C856.910447,474.76408 856.228447,474.19008 856.432447,473.38608 C862.272447,450.43908 873.692447,427.70808 890.887447,411.12608 C889.543447,413.25408 888.002447,415.48408 886.369447,417.72208 C887.662447,416.33908 888.986447,414.96708 890.328447,413.63308 C883.584447,422.08808 877.296447,430.77908 872.031447,440.28208 C866.132447,450.92808 861.570447,462.32508 858.397447,474.07108 C858.266447,474.55808 857.911447,474.76408 857.536447,474.76408" id="Fill-90" fill="#DE7A4A"></path>
                <path d="M833.024447,473.60208 C832.458447,473.60208 831.899447,473.15208 832.115447,472.44808 C837.882447,453.75208 847.085447,435.12308 860.114447,420.37608 C860.226447,420.24908 860.364447,420.19508 860.502447,420.19508 C860.917447,420.19508 861.335447,420.68008 861.052447,421.09908 C855.616447,429.16208 850.322447,437.13908 845.754447,445.74608 C841.113447,454.48808 837.176447,463.59708 833.936447,472.95008 C833.778447,473.40408 833.400447,473.60208 833.024447,473.60208" id="Fill-91" fill="#DE7A4A"></path>
                <path d="M913.939447,420.29708 C913.939447,420.29708 926.359447,413.72408 924.899447,425.40908 C923.859447,433.68908 910.969447,440.87508 904.449447,471.42408 C900.789447,488.56808 900.849447,508.57008 900.849447,508.57008 C900.849447,508.57008 877.527447,502.38808 880.454447,471.15208 C883.380447,439.91708 913.939447,420.29708 913.939447,420.29708" id="Fill-92" fill="#FFB581"></path>
                <path d="M879.255447,480.95208 C878.784447,480.95208 878.287447,480.61608 878.385447,480.08008 C878.939447,477.06108 879.631447,474.08308 880.454447,471.14608 C880.454447,471.14808 880.454447,471.15008 880.454447,471.15208 C880.180447,474.07508 880.136447,476.77808 880.281447,479.27808 C880.183447,479.65708 880.087447,480.03808 879.992447,480.41808 C879.899447,480.78908 879.583447,480.95208 879.255447,480.95208" id="Fill-93" fill="#DE7A4A"></path>
                <path d="M880.281447,479.27808 C880.136447,476.77808 880.180447,474.07508 880.454447,471.15208 C880.454447,471.15008 880.454447,471.14808 880.454447,471.14608 C882.394447,464.22408 885.058447,457.53208 888.336447,451.08908 C892.789447,442.33708 898.669447,433.58108 905.799447,426.76808 C905.899447,426.67208 906.009447,426.63108 906.129447,426.63108 C906.509447,426.63108 906.879447,427.10708 906.589447,427.48108 C900.519447,435.50708 894.859447,443.43008 890.247447,452.42308 C885.883447,460.93708 882.668447,470.01908 880.281447,479.27808" id="Fill-94" fill="#DE7A4A"></path>
                <path d="M1063.11945,513.58508 C1063.04945,513.58508 1062.97945,513.56908 1062.90945,513.53208 C1057.24945,510.59008 1051.64945,508.67208 1045.44945,507.18008 C1039.89945,505.84308 1034.18945,504.90508 1028.80945,502.92908 C1027.28945,502.37108 1025.76945,501.73408 1024.27945,501.01208 C1023.40945,499.84008 1022.49945,498.60608 1021.54945,497.33408 C1025.22945,499.49008 1029.36945,501.01808 1033.32945,502.10008 C1043.32945,504.83408 1055.35945,505.58908 1063.46945,512.80408 C1063.81945,513.11308 1063.48945,513.58508 1063.11945,513.58508" id="Fill-95" fill="#DE7A4A"></path>
                <path d="M1010.18945,483.49708 C1010.05945,483.36408 1009.93945,483.23008 1009.80945,483.09808 C1009.95945,483.11508 1010.09945,483.17408 1010.20945,483.28208 C1010.19945,483.35508 1010.19945,483.42408 1010.18945,483.49708" id="Fill-96" fill="#D19C82"></path>
                <path d="M1010.43945,483.76908 C1010.35945,483.67808 1010.26945,483.58808 1010.18945,483.49708 C1010.19945,483.42408 1010.19945,483.35508 1010.20945,483.28208 C1010.29945,483.37008 1010.36945,483.49208 1010.40945,483.65108 C1010.41945,483.69108 1010.42945,483.73008 1010.43945,483.76908" id="Fill-97" fill="#DE7A4A"></path>
                <path d="M1024.27945,501.01208 C1017.10945,497.54508 1010.71945,492.12608 1008.90945,484.06608 C1008.77945,483.47808 1009.25945,483.09308 1009.71945,483.09308 C1009.74945,483.09308 1009.77945,483.09508 1009.80945,483.09808 C1009.93945,483.23008 1010.05945,483.36408 1010.18945,483.49708 C1010.26945,483.58808 1010.35945,483.67808 1010.43945,483.76908 C1011.98945,489.91508 1016.30945,494.26208 1021.54945,497.33408 C1022.49945,498.60608 1023.40945,499.84008 1024.27945,501.01208" id="Fill-98" fill="#DE7A4A"></path>
                <path d="M466.284447,509.47408 C470.851447,513.41708 485.464447,490.06108 510.268447,480.98108 C553.763447,465.05808 622.355447,458.25808 663.007447,439.19408 C726.841447,409.25608 835.893447,376.36908 853.608447,362.13708 C909.589447,317.16308 794.672447,310.57708 779.908447,310.00808 C752.919447,308.96908 742.678447,254.06408 707.620447,244.72508 C685.756447,238.90108 663.280447,254.14008 617.709447,267.59108 C527.144447,294.32308 504.803447,314.14608 510.164447,413.71708 C512.396447,455.17208 445.183447,491.25508 466.284447,509.47408" id="Fill-99" fill="#772E25"></path>
                <path d="M530.576447,413.54208 L529.957447,411.51108 C535.132447,409.93308 541.865447,404.70808 550.389447,398.09208 C566.119447,385.88408 587.663447,369.16408 616.459447,362.42108 C679.219447,347.72708 759.509447,324.96608 779.245447,309.17908 L780.571447,310.83708 C754.765447,331.48008 639.740447,359.15108 616.944447,364.48808 C588.598447,371.12508 567.266447,387.68108 551.691447,399.76908 C542.994447,406.51908 536.125447,411.85008 530.576447,413.54208" id="Fill-100" fill="#36251C"></path>
                <path d="M797.967447,434.17408 C794.649447,432.56108 790.231447,432.54708 786.605447,432.81508 C782.945447,433.08508 779.304447,433.78608 775.836447,434.99408 C768.720447,437.47308 762.826447,441.78908 758.620447,448.07808 C757.369447,449.94908 760.051447,451.71808 761.590447,450.36908 C766.217447,446.30908 771.949447,443.03608 777.823447,441.17208 C780.676447,440.26808 783.615447,439.68408 786.605447,439.52608 C788.237447,439.43908 789.890447,439.44708 791.521447,439.54408 C793.138447,439.64208 794.780447,440.06608 796.394447,439.98508 C799.253447,439.84208 800.932447,435.61608 797.967447,434.17408" id="Fill-101" fill="#36251C"></path>
                <path d="M780.202447,512.55008 C776.064447,505.94008 769.712447,501.11808 764.316447,495.61208 C757.908447,489.07608 751.813447,481.69608 746.729447,474.09208 C746.091447,473.13908 744.629447,473.97308 745.182447,474.99708 C748.728447,481.55408 752.525447,487.57108 757.389447,493.24808 C762.089447,498.73108 767.550447,503.42108 772.424447,508.72908 C776.616447,513.29508 780.632447,519.03408 779.241447,525.53708 C778.168447,530.55708 774.890447,534.98408 769.469447,535.31408 C767.111447,535.45808 766.369447,539.01208 768.887447,539.61508 C775.138447,541.11008 780.489447,536.43908 782.686447,530.87208 C785.152447,524.62508 783.676447,518.09808 780.202447,512.55008" id="Fill-102" fill="#36251C"></path>
                <path d="M290.889447,664.14408 C287.081447,664.51808 245.328447,657.29108 231.070447,644.35108 C216.811447,631.41108 220.732447,648.06708 216.671447,652.20708 C212.609447,656.34508 204.662447,652.65808 204.281447,658.30608 C203.900447,663.95508 207.581447,665.46308 205.486447,668.47408 C203.392447,671.48608 196.489447,671.02008 196.736447,676.71008 C196.983447,682.40108 255.553447,692.65408 282.758447,681.87908 C309.964447,671.10408 290.889447,664.14408 290.889447,664.14408" id="Fill-103" fill="#6D6CA8"></path>
                <path d="M447.667447,554.92708 C447.667447,554.92708 453.216447,575.47608 452.864447,599.41008 C452.511447,623.34208 448.767447,650.83008 430.595447,667.88708 C412.424447,684.94608 404.505447,699.54208 400.316447,705.56508 C396.128447,711.58608 385.127447,706.43208 385.127447,706.43208 L376.933447,697.05308 C376.933447,697.05308 367.928447,709.05508 360.940447,709.84508 C353.952447,710.63508 352.612447,711.80508 346.632447,706.99008 C340.653447,702.17308 334.546447,699.24008 322.466447,682.03408 C310.386447,664.82808 304.534447,658.12908 315.012447,633.61808 C325.491447,609.10608 338.924447,606.22908 347.224447,585.98408 C355.523447,565.73908 366.650447,548.33008 391.944447,539.82408 C421.618447,529.84508 439.557447,544.29308 447.667447,554.92708" id="Fill-104" fill="#6D6CA8"></path>
                <path d="M436.039447,549.73108 L468.680447,542.47408 L448.908447,573.92408 C448.908447,573.92408 435.728447,573.03708 436.039447,549.73108" id="Fill-105" fill="#36251C"></path>
                <path d="M388.088447,606.39108 C375.941447,589.64108 359.980447,593.14808 340.680447,608.23908 C321.843447,622.96608 299.464447,667.87508 261.258447,673.49508 C261.258447,673.49508 279.233447,696.77208 335.935447,687.98508 C392.637447,679.19908 402.508447,626.27608 388.088447,606.39108" id="Fill-106" fill="#8483CC"></path>
                <path d="M426.858447,573.69908 C426.600447,577.51208 423.301447,580.39408 419.488447,580.13708 C415.676447,579.88008 412.794447,576.58208 413.050447,572.76808 C413.307447,568.95608 416.607447,566.07408 420.419447,566.33108 C424.232447,566.58708 427.114447,569.88608 426.858447,573.69908" id="Fill-107" fill="#36251C"></path>
                <path d="M402.924447,743.79908 C401.976447,743.79908 401.112447,743.16108 400.868447,742.20008 C400.778447,741.84608 391.888447,706.88108 390.900447,703.08108 C390.605447,701.94608 391.285447,700.78708 392.420447,700.49208 C393.551447,700.19208 394.714447,700.87608 395.009447,702.01208 C396.000447,705.82408 404.893447,740.80008 404.983447,741.15308 C405.272447,742.29008 404.585447,743.44508 403.448447,743.73408 C403.273447,743.77908 403.097447,743.79908 402.924447,743.79908" id="Fill-108" fill="#36251C"></path>
                <path d="M362.877447,748.66508 C361.868447,748.66508 360.974447,747.94408 360.790447,746.91708 C358.175447,732.35808 353.736447,708.50208 352.955447,706.46508 C352.539447,705.38208 353.060447,704.14208 354.137447,703.71008 C355.212447,703.27808 356.428447,703.76708 356.876447,704.83708 C357.995447,707.51108 363.814447,739.73408 364.968447,746.16708 C365.176447,747.32008 364.408447,748.42308 363.254447,748.63108 C363.128447,748.65408 363.001447,748.66508 362.877447,748.66508" id="Fill-109" fill="#36251C"></path>
                <path d="M422.731447,747.33308 C422.525447,747.33308 422.314447,747.30208 422.107447,747.23908 C414.301447,744.83708 389.589447,744.19408 389.340447,744.18708 C388.168447,744.15808 387.241447,743.18408 387.271447,742.01208 C387.299447,740.83908 388.261447,739.89308 389.446447,739.94308 C390.485447,739.96808 414.995447,740.60908 423.355447,743.18008 C424.475447,743.52508 425.105447,744.71308 424.760447,745.83308 C424.479447,746.74708 423.639447,747.33308 422.731447,747.33308" id="Fill-110" fill="#36251C"></path>
                <path d="M378.073447,749.84908 L377.807447,749.83308 C374.194447,749.38108 363.551447,749.22008 354.797447,749.22008 C353.624447,749.22008 352.674447,748.27008 352.674447,747.09708 C352.674447,745.92408 353.624447,744.97408 354.797447,744.97408 C359.107447,744.97408 373.543447,745.02108 378.334447,745.62008 C379.497447,745.76508 380.322447,746.82608 380.177447,747.99008 C380.043447,749.06308 379.128447,749.84908 378.073447,749.84908" id="Fill-111" fill="#36251C"></path>
                <path d="M890.680447,1526.44808 C886.192447,1526.44808 882.154447,1525.86808 879.177447,1524.37808 C877.140447,1523.35808 871.729447,1520.65808 871.729447,1455.11808 C871.729447,1423.11808 873.050447,1391.36808 873.064447,1391.05808 L875.888447,1391.17808 C875.874447,1391.48808 874.555447,1423.18808 874.555447,1455.11808 C874.556447,1514.30808 879.061447,1521.15808 880.441447,1521.84808 C892.669447,1527.96808 927.019447,1516.55808 927.359447,1516.43808 L928.259447,1519.11808 C927.129447,1519.49808 906.209447,1526.44808 890.680447,1526.44808" id="Fill-112" fill="#545482"></path>
                <path d="M1756.39945,1723.02808 C1756.39945,1726.14808 1378.99945,1728.66808 913.439447,1728.66808 C447.883447,1728.66808 70.4764471,1726.14808 70.4764471,1723.02808 C70.4764471,1719.90808 447.883447,1717.38808 913.439447,1717.38808 C1378.99945,1717.38808 1756.39945,1719.90808 1756.39945,1723.02808" id="Fill-113" fill="#36251C"></path>
            </g>
        </g>
    </g>
</svg>